<svg width="56" height="56" viewBox="0 0 56 56" fill="none" xmlns="http://www.w3.org/2000/svg">
<g clip-path="url(#clip0_221030_3904)">
<path d="M33.4039 21.2283C33.0827 20.318 32.4869 19.5298 31.6988 18.9724C30.9108 18.415 29.9691 18.1159 29.0039 18.1163H25.3919C24.3614 18.1109 23.3655 18.4878 22.5968 19.1741C21.8281 19.8604 21.3412 20.8074 21.2303 21.8319C21.1193 22.8563 21.3922 23.8856 21.9961 24.7206C22.6 25.5555 23.4921 26.1369 24.4999 26.3523L29.9999 27.5523C31.1287 27.7946 32.1276 28.4466 32.8038 29.3823C33.48 30.3181 33.7854 31.4712 33.6611 32.619C33.5367 33.7668 32.9915 34.8278 32.1306 35.5971C31.2698 36.3663 30.1544 36.7893 28.9999 36.7843H25.8919C23.8599 36.7843 22.1319 35.4843 21.4919 33.6723" stroke="#0369A1" stroke-width="2.85714" stroke-linecap="round" stroke-linejoin="round"/>
<path d="M27.448 18.1162V13.4482" stroke="#0369A1" stroke-width="2.85714" stroke-linecap="round" stroke-linejoin="round"/>
<path d="M27.448 41.4482V36.7842" stroke="#0369A1" stroke-width="2.85714" stroke-linecap="round" stroke-linejoin="round"/>
<path d="M7.99194 53.9922V43.9922H17.9919" stroke="#0369A1" stroke-width="2.85714" stroke-linecap="round" stroke-linejoin="round"/>
<path d="M53.5519 23.2158C54.6138 28.8767 53.766 34.7299 51.1416 39.8568C48.5171 44.9837 44.2646 49.094 39.0515 51.5427C33.8383 53.9914 27.9597 54.6397 22.3382 53.386C16.7167 52.1323 11.6706 49.0475 7.99194 44.6158" stroke="#0369A1" stroke-width="2.85714" stroke-linecap="round" stroke-linejoin="round"/>
<path d="M2.44796 32.7839C1.38605 27.1231 2.23386 21.2698 4.85831 16.1429C7.48276 11.016 11.7353 6.90568 16.9484 4.45702C22.1616 2.00835 28.0402 1.35998 33.6617 2.61369C39.2832 3.86739 44.3293 6.95218 48.008 11.3839" stroke="#0369A1" stroke-width="2.85714" stroke-linecap="round" stroke-linejoin="round"/>
<path d="M48.0081 2.00781V12.0078H38.0081" stroke="#0369A1" stroke-width="2.85714" stroke-linecap="round" stroke-linejoin="round"/>
</g>
<defs>
<clipPath id="clip0_221030_3904">
<rect width="56" height="56" fill="white"/>
</clipPath>
</defs>
</svg>
