<svg width="136" height="24" viewBox="0 0 136 24" fill="none" xmlns="http://www.w3.org/2000/svg">
<path d="M0.200928 5.72634V2.43018H15.7308V5.72634H9.9417V21.3393H5.98999V5.72634H0.200928Z" fill="white"/>
<path d="M25.5092 15.3009V7.15745H29.4424V21.3393H25.6662V18.7633H25.5184C25.1984 19.5942 24.6659 20.2621 23.9211 20.7668C23.1825 21.2716 22.2807 21.5239 21.2159 21.5239C20.268 21.5239 19.4339 21.3085 18.7137 20.8776C17.9936 20.4467 17.4304 19.8343 17.0241 19.0403C16.624 18.2462 16.4209 17.2952 16.4147 16.1873V7.15745H20.348V15.4856C20.3541 16.3227 20.5788 16.9844 21.022 17.4707C21.4652 17.9569 22.0591 18.2001 22.8039 18.2001C23.2779 18.2001 23.7211 18.0923 24.1335 17.8769C24.5459 17.6553 24.8783 17.3291 25.1306 16.8982C25.3892 16.4673 25.5154 15.9349 25.5092 15.3009Z" fill="white"/>
<path d="M32.7186 21.3393V7.15745H36.5318V9.63188H36.6795C36.938 8.75167 37.372 8.0869 37.9813 7.63756C38.5907 7.18207 39.2924 6.95432 40.0865 6.95432C40.2834 6.95432 40.4958 6.96663 40.7235 6.99125C40.9513 7.01588 41.1513 7.04973 41.3237 7.09282V10.5829C41.139 10.5275 40.8836 10.4782 40.5573 10.4351C40.2311 10.3921 39.9326 10.3705 39.6617 10.3705C39.0831 10.3705 38.5661 10.4967 38.1106 10.7491C37.6613 10.9953 37.3043 11.34 37.0396 11.7832C36.7811 12.2263 36.6518 12.7372 36.6518 13.3158V21.3393H32.7186Z" fill="white"/>
<path d="M43.5611 21.3393V2.43018H47.4943V9.53955H47.6144C47.7867 9.15792 48.036 8.77014 48.3622 8.3762C48.6946 7.9761 49.1255 7.64372 49.6549 7.37904C50.1904 7.10821 50.8551 6.97279 51.6492 6.97279C52.6833 6.97279 53.6373 7.24362 54.5114 7.78529C55.3854 8.3208 56.0841 9.13022 56.6073 10.2136C57.1305 11.2907 57.3921 12.6418 57.3921 14.2668C57.3921 15.8487 57.1366 17.1844 56.6257 18.2739C56.121 19.3573 55.4316 20.179 54.5575 20.7391C53.6897 21.2931 52.7171 21.5701 51.6399 21.5701C50.8767 21.5701 50.2273 21.4439 49.6918 21.1915C49.1624 20.9392 48.7285 20.6222 48.3899 20.2405C48.0514 19.8528 47.7929 19.4619 47.6144 19.068H47.4389V21.3393H43.5611ZM47.4112 14.2484C47.4112 15.0916 47.5282 15.8272 47.7621 16.455C47.996 17.0829 48.3345 17.5722 48.7777 17.9231C49.2209 18.2678 49.7595 18.4401 50.3935 18.4401C51.0336 18.4401 51.5753 18.2647 52.0185 17.9138C52.4617 17.5568 52.7971 17.0644 53.0249 16.4366C53.2588 15.8026 53.3757 15.0732 53.3757 14.2484C53.3757 13.4297 53.2619 12.7095 53.0341 12.0878C52.8064 11.4662 52.4709 10.9799 52.0277 10.629C51.5845 10.2782 51.0398 10.1028 50.3935 10.1028C49.7533 10.1028 49.2117 10.272 48.7685 10.6106C48.3315 10.9491 47.996 11.4292 47.7621 12.0509C47.5282 12.6726 47.4112 13.4051 47.4112 14.2484Z" fill="white"/>
<path d="M79.3921 16.98H73.4021C72.3021 16.98 71.4521 17.92 70.9221 18.88C70.5025 19.6672 69.8319 20.2917 69.0167 20.654C68.2015 21.0163 67.2887 21.0957 66.4232 20.8796C65.5577 20.6635 64.7892 20.1643 64.24 19.4614C63.6908 18.7584 63.3924 17.8921 63.3921 17C63.4021 16.3 63.5921 15.6 63.9621 15" stroke="white" stroke-width="2" stroke-linecap="round" stroke-linejoin="round"/>
<path d="M67.3921 17.0002L70.5221 11.2202C71.0521 10.2502 70.6221 9.04018 70.0221 8.12018C69.7389 7.66728 69.5493 7.16225 69.4644 6.63489C69.3796 6.10753 69.4012 5.56851 69.5281 5.04965C69.6549 4.53078 69.8844 4.04257 70.203 3.61383C70.5215 3.18509 70.9228 2.82449 71.383 2.55332C71.8432 2.28215 72.353 2.10589 72.8824 2.03495C73.4118 1.96401 73.9501 1.99982 74.4654 2.14026C74.9808 2.28071 75.4628 2.52296 75.883 2.8527C76.3032 3.18245 76.6531 3.59301 76.9121 4.06018" stroke="white" stroke-width="2" stroke-linecap="round" stroke-linejoin="round"/>
<path d="M73.3921 6L76.5221 11.73C77.0521 12.7 78.2921 13 79.3921 13C80.453 13 81.4704 13.4214 82.2205 14.1716C82.9707 14.9217 83.3921 15.9391 83.3921 17C83.3921 18.0609 82.9707 19.0783 82.2205 19.8284C81.4704 20.5786 80.453 21 79.3921 21" stroke="white" stroke-width="2" stroke-linecap="round" stroke-linejoin="round"/>
<path d="M89.3921 21.856V2.94696H101.912V6.24312H93.39V10.7488H101.081V14.045H93.39V21.856H89.3921Z" fill="white"/>
<path d="M104.429 21.856V7.67423H108.242V10.1487H108.39C108.648 9.26845 109.082 8.60368 109.691 8.15434C110.301 7.69885 111.003 7.4711 111.797 7.4711C111.994 7.4711 112.206 7.48341 112.434 7.50803C112.661 7.53266 112.861 7.56651 113.034 7.6096V11.0997C112.849 11.0443 112.594 10.995 112.267 10.9519C111.941 10.9088 111.643 10.8873 111.372 10.8873C110.793 10.8873 110.276 11.0135 109.821 11.2658C109.371 11.5121 109.014 11.8568 108.75 12.2999C108.491 12.7431 108.362 13.254 108.362 13.8326V21.856H104.429Z" fill="white"/>
<path d="M115.197 21.856V7.67423H119.131V21.856H115.197ZM117.173 5.8461C116.588 5.8461 116.087 5.65221 115.668 5.26443C115.256 4.87049 115.05 4.39961 115.05 3.85178C115.05 3.31012 115.256 2.84539 115.668 2.45761C116.087 2.06367 116.588 1.8667 117.173 1.8667C117.758 1.8667 118.257 2.06367 118.669 2.45761C119.088 2.84539 119.297 3.31012 119.297 3.85178C119.297 4.39961 119.088 4.87049 118.669 5.26443C118.257 5.65221 117.758 5.8461 117.173 5.8461Z" fill="white"/>
<path d="M128.819 22.133C127.385 22.133 126.145 21.8283 125.098 21.219C124.058 20.6034 123.255 19.7479 122.688 18.6522C122.122 17.5504 121.839 16.2732 121.839 14.8205C121.839 13.3556 122.122 12.0753 122.688 10.9796C123.255 9.87783 124.058 9.02224 125.098 8.41286C126.145 7.79733 127.385 7.48957 128.819 7.48957C130.253 7.48957 131.49 7.79733 132.531 8.41286C133.577 9.02224 134.383 9.87783 134.95 10.9796C135.516 12.0753 135.799 13.3556 135.799 14.8205C135.799 16.2732 135.516 17.5504 134.95 18.6522C134.383 19.7479 133.577 20.6034 132.531 21.219C131.49 21.8283 130.253 22.133 128.819 22.133ZM128.837 19.0862C129.49 19.0862 130.035 18.9015 130.472 18.5322C130.909 18.1567 131.238 17.6458 131.46 16.9995C131.687 16.3532 131.801 15.6176 131.801 14.7928C131.801 13.968 131.687 13.2325 131.46 12.5862C131.238 11.9399 130.909 11.429 130.472 11.0535C130.035 10.678 129.49 10.4903 128.837 10.4903C128.179 10.4903 127.625 10.678 127.176 11.0535C126.732 11.429 126.397 11.9399 126.169 12.5862C125.948 13.2325 125.837 13.968 125.837 14.7928C125.837 15.6176 125.948 16.3532 126.169 16.9995C126.397 17.6458 126.732 18.1567 127.176 18.5322C127.625 18.9015 128.179 19.0862 128.837 19.0862Z" fill="white"/>
</svg>
