<svg width="137" height="24" viewBox="0 0 137 24" fill="none" xmlns="http://www.w3.org/2000/svg">
<path d="M0.923279 5.72622V2.43005H16.4531V5.72622H10.664V21.3391H6.71234V5.72622H0.923279Z" fill="black"/>
<path d="M26.2315 15.3008V7.15733H30.1648V21.3391H26.3885V18.7632H26.2408C25.9207 19.5941 25.3883 20.262 24.6435 20.7667C23.9048 21.2714 23.0031 21.5238 21.9382 21.5238C20.9903 21.5238 20.1563 21.3084 19.4361 20.8775C18.7159 20.4466 18.1527 19.8342 17.7465 19.0401C17.3464 18.2461 17.1432 17.2951 17.1371 16.1872V7.15733H21.0703V15.4855C21.0765 16.3226 21.3011 16.9843 21.7443 17.4705C22.1875 17.9568 22.7815 18.1999 23.5263 18.1999C24.0002 18.1999 24.4434 18.0922 24.8558 17.8768C25.2682 17.6552 25.6006 17.329 25.853 16.8981C26.1115 16.4672 26.2377 15.9348 26.2315 15.3008Z" fill="black"/>
<path d="M33.4409 21.3391V7.15733H37.2541V9.63176H37.4019C37.6604 8.75155 38.0943 8.08678 38.7037 7.63744C39.3131 7.18195 40.0148 6.9542 40.8088 6.9542C41.0058 6.9542 41.2181 6.96651 41.4459 6.99113C41.6736 7.01575 41.8737 7.04961 42.046 7.0927V10.5828C41.8614 10.5274 41.6059 10.4781 41.2797 10.435C40.9535 10.3919 40.6549 10.3704 40.3841 10.3704C39.8055 10.3704 39.2885 10.4966 38.833 10.7489C38.3836 10.9952 38.0266 11.3399 37.7619 11.783C37.5034 12.2262 37.3742 12.7371 37.3742 13.3157V21.3391H33.4409Z" fill="black"/>
<path d="M44.2834 21.3391V2.43005H48.2167V9.53943H48.3367C48.5091 9.1578 48.7584 8.77002 49.0846 8.37608C49.417 7.97598 49.8478 7.6436 50.3772 7.37892C50.9127 7.10808 51.5775 6.97267 52.3715 6.97267C53.4056 6.97267 54.3597 7.2435 55.2337 7.78517C56.1078 8.32068 56.8064 9.1301 57.3296 10.2134C57.8528 11.2906 58.1144 12.6417 58.1144 14.2667C58.1144 15.8486 57.859 17.1843 57.3481 18.2738C56.8433 19.3571 56.154 20.1789 55.2799 20.739C54.412 21.293 53.4395 21.57 52.3623 21.57C51.599 21.57 50.9496 21.4438 50.4141 21.1914C49.8848 20.9391 49.4508 20.6221 49.1123 20.2404C48.7737 19.8526 48.5152 19.4618 48.3367 19.0678H48.1613V21.3391H44.2834ZM48.1336 14.2482C48.1336 15.0915 48.2505 15.8271 48.4844 16.4549C48.7183 17.0828 49.0569 17.5721 49.5001 17.923C49.9432 18.2676 50.4818 18.44 51.1158 18.44C51.756 18.44 52.2977 18.2646 52.7408 17.9137C53.184 17.5567 53.5195 17.0643 53.7472 16.4364C53.9811 15.8025 54.0981 15.073 54.0981 14.2482C54.0981 13.4296 53.9842 12.7094 53.7565 12.0877C53.5287 11.466 53.1932 10.9798 52.7501 10.6289C52.3069 10.2781 51.7621 10.1026 51.1158 10.1026C50.4757 10.1026 49.934 10.2719 49.4908 10.6105C49.0538 10.949 48.7183 11.4291 48.4844 12.0508C48.2505 12.6725 48.1336 13.405 48.1336 14.2482Z" fill="black"/>
<path d="M80.1144 16.98H74.1244C73.0244 16.98 72.1744 17.92 71.6444 18.88C71.2249 19.6672 70.5542 20.2917 69.7391 20.654C68.9239 21.0163 68.011 21.0957 67.1455 20.8796C66.28 20.6635 65.5116 20.1643 64.9624 19.4614C64.4132 18.7584 64.1147 17.8921 64.1144 17C64.1244 16.3 64.3144 15.6 64.6844 15" stroke="black" stroke-width="2" stroke-linecap="round" stroke-linejoin="round"/>
<path d="M68.1144 17.0001L71.2444 11.2201C71.7744 10.2501 71.3444 9.04006 70.7444 8.12006C70.4613 7.66716 70.2716 7.16213 70.1868 6.63477C70.102 6.1074 70.1236 5.56839 70.2504 5.04952C70.3773 4.53066 70.6068 4.04245 70.9253 3.61371C71.2439 3.18496 71.6451 2.82437 72.1053 2.5532C72.5655 2.28202 73.0753 2.10577 73.6048 2.03483C74.1342 1.96388 74.6724 1.99969 75.1878 2.14014C75.7031 2.28059 76.1851 2.52283 76.6053 2.85258C77.0256 3.18232 77.3755 3.59289 77.6344 4.06006" stroke="black" stroke-width="2" stroke-linecap="round" stroke-linejoin="round"/>
<path d="M74.1144 6L77.2444 11.73C77.7744 12.7 79.0144 13 80.1144 13C81.1753 13 82.1927 13.4214 82.9429 14.1716C83.693 14.9217 84.1144 15.9391 84.1144 17C84.1144 18.0609 83.693 19.0783 82.9429 19.8284C82.1927 20.5786 81.1753 21 80.1144 21" stroke="black" stroke-width="2" stroke-linecap="round" stroke-linejoin="round"/>
<path d="M90.1144 21.8562V2.94708H102.634V6.24324H94.1122V10.7489H101.803V14.0451H94.1122V21.8562H90.1144Z" fill="#38BDF8"/>
<path d="M105.151 21.8562V7.67435H108.964V10.1488H109.112C109.37 9.26857 109.804 8.6038 110.414 8.15446C111.023 7.69897 111.725 7.47123 112.519 7.47123C112.716 7.47123 112.928 7.48354 113.156 7.50816C113.384 7.53278 113.584 7.56663 113.756 7.60972V11.0998C113.571 11.0444 113.316 10.9951 112.99 10.952C112.664 10.909 112.365 10.8874 112.094 10.8874C111.516 10.8874 110.999 11.0136 110.543 11.266C110.094 11.5122 109.737 11.8569 109.472 12.3001C109.213 12.7432 109.084 13.2541 109.084 13.8327V21.8562H105.151Z" fill="#38BDF8"/>
<path d="M115.92 21.8562V7.67435H119.853V21.8562H115.92ZM117.896 5.84623C117.311 5.84623 116.809 5.65233 116.391 5.26455C115.978 4.87061 115.772 4.39973 115.772 3.85191C115.772 3.31024 115.978 2.84551 116.391 2.45773C116.809 2.06379 117.311 1.86682 117.896 1.86682C118.48 1.86682 118.979 2.06379 119.391 2.45773C119.81 2.84551 120.019 3.31024 120.019 3.85191C120.019 4.39973 119.81 4.87061 119.391 5.26455C118.979 5.65233 118.48 5.84623 117.896 5.84623Z" fill="#38BDF8"/>
<path d="M129.541 22.1332C128.107 22.1332 126.867 21.8285 125.82 21.2191C124.78 20.6036 123.977 19.748 123.411 18.6523C122.844 17.5505 122.561 16.2733 122.561 14.8207C122.561 13.3557 122.844 12.0754 123.411 10.9797C123.977 9.87795 124.78 9.02236 125.82 8.41299C126.867 7.79746 128.107 7.48969 129.541 7.48969C130.975 7.48969 132.213 7.79746 133.253 8.41299C134.299 9.02236 135.106 9.87795 135.672 10.9797C136.238 12.0754 136.521 13.3557 136.521 14.8207C136.521 16.2733 136.238 17.5505 135.672 18.6523C135.106 19.748 134.299 20.6036 133.253 21.2191C132.213 21.8285 130.975 22.1332 129.541 22.1332ZM129.56 19.0863C130.212 19.0863 130.757 18.9016 131.194 18.5323C131.631 18.1568 131.96 17.6459 132.182 16.9996C132.41 16.3533 132.524 15.6178 132.524 14.793C132.524 13.9681 132.41 13.2326 132.182 12.5863C131.96 11.94 131.631 11.4291 131.194 11.0536C130.757 10.6781 130.212 10.4904 129.56 10.4904C128.901 10.4904 128.347 10.6781 127.898 11.0536C127.455 11.4291 127.119 11.94 126.891 12.5863C126.67 13.2326 126.559 13.9681 126.559 14.793C126.559 15.6178 126.67 16.3533 126.891 16.9996C127.119 17.6459 127.455 18.1568 127.898 18.5323C128.347 18.9016 128.901 19.0863 129.56 19.0863Z" fill="#38BDF8"/>
</svg>
