<svg width="24" height="24" viewBox="0 0 24 24" fill="none" xmlns="http://www.w3.org/2000/svg">
<g clip-path="url(#clip0_220814_18789)">
<path d="M17.4579 14.3635C17.223 14.2461 15.6961 13.5414 15.4612 13.4239C15.2263 13.3065 14.9914 13.3065 14.7565 13.5414C14.5216 13.7763 14.0517 14.481 13.8168 14.7159C13.6994 14.9508 13.4645 14.9508 13.2296 14.8333C12.4074 14.481 11.5852 14.0112 10.8805 13.4239C10.2932 12.8366 9.70599 12.1319 9.23619 11.4272C9.11869 11.1923 9.23619 10.9574 9.35359 10.8399C9.47109 10.7225 9.58849 10.4876 9.82339 10.3701C9.94089 10.2527 10.0583 10.0178 10.0583 9.90027C10.1758 9.78287 10.1758 9.54797 10.0583 9.43047C9.94089 9.31307 9.35359 7.90357 9.11869 7.31627C9.00129 6.49417 8.76629 6.49417 8.53139 6.49417H7.94419C7.70929 6.49417 7.35689 6.72907 7.23939 6.84647C6.53469 7.55127 6.18239 8.37337 6.18239 9.31307C6.29979 10.3701 6.65219 11.4272 7.35689 12.3668C8.64889 14.2461 10.2932 15.773 12.2899 16.7126C12.8772 16.9475 13.347 17.1824 13.9343 17.2999C14.5215 17.5348 15.1088 17.5348 15.8135 17.4173C16.6357 17.2999 17.3404 16.7126 17.8102 16.0079C18.0451 15.5381 18.0451 15.0683 17.9277 14.5984L17.4579 14.3635ZM20.3942 3.67527C15.8135 -0.905429 8.41399 -0.905429 3.83329 3.67527C0.0747924 7.43377 -0.629908 13.189 1.95409 17.7697L0.309692 23.7598L6.53469 22.1155C8.29649 23.0551 10.1758 23.5249 12.055 23.5249C18.515 23.5249 23.6829 18.357 23.6829 11.897C23.8004 8.84317 22.5084 5.90687 20.3942 3.67527ZM17.223 20.1188C15.6961 21.0584 13.9343 21.6456 12.055 21.6456C10.2932 21.6456 8.64889 21.1758 7.12199 20.3537L6.76959 20.1187L3.12859 21.0584L4.06819 17.5348L3.83329 17.1824C1.01439 12.4843 2.42389 6.61157 7.00459 3.67527C11.5852 0.738971 17.4579 2.26587 20.2768 6.72907C23.0956 11.3097 21.8037 17.3 17.223 20.1188Z" fill="white"/>
</g>
<defs>
<clipPath id="clip0_220814_18789">
<rect width="24" height="24" fill="white"/>
</clipPath>
</defs>
</svg>
