<svg width="14" height="14" viewBox="0 0 14 14" fill="none" xmlns="http://www.w3.org/2000/svg">
<path d="M2.58984 2.49731C5.06434 0.0230188 9.05885 0.0207058 11.5361 2.49048C12.6906 3.71026 13.378 5.29605 13.3154 6.92114V6.9397C13.3154 10.4318 10.5244 13.2228 7.03223 13.2229C6.02064 13.2229 5.00446 12.9699 4.04688 12.4592L3.87402 12.3674L3.68457 12.4172L0.892578 13.1536L1.62207 10.4983L1.67676 10.2991L1.5752 10.1204C0.219171 7.71651 0.537406 4.72104 2.4043 2.69067L2.58984 2.49731ZM12.0781 3.39868C10.2937 0.859125 6.8729 -0.0318833 4.0918 1.55591L3.81641 1.7229C0.918224 3.58068 0.0232219 7.30657 1.80762 10.2805L1.81348 10.2903L1.82031 10.3L1.83105 10.3167L1.3418 12.1555L1.12109 12.9817L1.9502 12.7678L3.85645 12.2756L3.87695 12.2893L3.89648 12.302L3.91699 12.3137C4.87134 12.8276 5.91193 13.1262 7.03223 13.1262C8.08418 13.1262 9.07096 12.8388 9.94238 12.3723L10.3086 12.1614C13.1351 10.422 13.9833 6.79609 12.4131 3.93774L12.2539 3.66333L12.251 3.65845L12.0781 3.39868ZM4.81543 4.28833C4.81803 4.3035 4.82162 4.31996 4.82422 4.33813L4.83301 4.39771L4.85547 4.45337C4.92543 4.62829 5.04669 4.92393 5.16016 5.18579C5.2167 5.31627 5.27261 5.44315 5.32031 5.54321C5.3355 5.57507 5.3522 5.60574 5.36719 5.63501V5.6897C5.28498 5.7516 5.22469 5.81713 5.18359 5.86646C5.15454 5.90133 5.12589 5.939 5.11328 5.95532L5.10254 5.96997C4.95575 6.11691 4.73601 6.48124 4.94043 6.88989L4.9541 6.91724L4.97168 6.9436C5.26525 7.38392 5.62925 7.81988 5.99316 8.18384L6.00977 8.20044L6.02734 8.21509C6.4828 8.59457 7.00624 8.89219 7.52051 9.11255V9.11157C7.63708 9.16587 7.80093 9.21701 7.98535 9.19067C8.19284 9.16092 8.3638 9.04209 8.47168 8.86841C8.55925 8.76846 8.66031 8.63967 8.7334 8.54224C8.80235 8.45032 8.85848 8.37769 8.89941 8.32642C9.0195 8.3834 9.20824 8.47321 9.38965 8.55786L9.95996 8.82642L10 8.84595C10.0013 8.93502 9.98597 9.01389 9.95117 9.09106C9.75515 9.37316 9.50875 9.56871 9.2627 9.64087L9.1543 9.66528L9.14258 9.66724C8.77652 9.72827 8.53747 9.71634 8.31445 9.6272L8.27148 9.6106L8.22656 9.60181L8.02539 9.55005C7.83582 9.49081 7.6545 9.40462 7.375 9.29224C6.30846 8.78848 5.41503 7.96642 4.70312 6.93091L4.69727 6.92212L4.69141 6.91431L4.56836 6.73657C4.30508 6.32499 4.16276 5.87145 4.10742 5.40649C4.1136 5.01074 4.25885 4.66351 4.5752 4.34692L4.57617 4.3479C4.57134 4.35271 4.56988 4.35363 4.57324 4.35083C4.57647 4.34816 4.58224 4.34365 4.58984 4.33813C4.60572 4.32665 4.6254 4.31317 4.64551 4.302C4.65723 4.2955 4.66741 4.29167 4.6748 4.28833H4.81543Z" stroke="#14B8A6"/>
</svg>
