<svg width="15" height="14" viewBox="0 0 15 14" fill="none" xmlns="http://www.w3.org/2000/svg">
<g clip-path="url(#clip0_220979_4690)">
<path d="M3.08984 2.49744C5.56434 0.0231409 9.55885 0.0208279 12.0361 2.4906C13.1906 3.71039 13.878 5.29618 13.8154 6.92126V6.93982C13.8154 10.432 11.0244 13.2229 7.53223 13.223C6.52064 13.223 5.50446 12.97 4.54688 12.4594L4.37402 12.3676L4.18457 12.4174L1.39258 13.1537L2.12207 10.4984L2.17676 10.2992L2.0752 10.1205C0.719171 7.71664 1.03741 4.72116 2.9043 2.6908L3.08984 2.49744ZM12.5781 3.3988C10.7937 0.859247 7.3729 -0.0317613 4.5918 1.55603L4.31641 1.72302C1.41822 3.5808 0.523222 7.30669 2.30762 10.2806L2.31348 10.2904L2.32031 10.3002L2.33105 10.3168L1.8418 12.1556L1.62109 12.9818L2.4502 12.7679L4.35645 12.2758L4.37695 12.2894L4.39648 12.3021L4.41699 12.3138C5.37134 12.8277 6.41193 13.1263 7.53223 13.1263C8.58418 13.1263 9.57096 12.8389 10.4424 12.3724L10.8086 12.1615C13.6351 10.4221 14.4833 6.79621 12.9131 3.93787L12.7539 3.66345L12.751 3.65857L12.5781 3.3988ZM5.31543 4.28845C5.31803 4.30363 5.32162 4.32008 5.32422 4.33826L5.33301 4.39783L5.35547 4.45349C5.42543 4.62841 5.54669 4.92405 5.66016 5.18591C5.7167 5.31639 5.77261 5.44327 5.82031 5.54333C5.8355 5.57519 5.8522 5.60586 5.86719 5.63513V5.68982C5.78498 5.75172 5.72469 5.81725 5.68359 5.86658C5.65454 5.90145 5.62589 5.93913 5.61328 5.95544L5.60254 5.97009C5.45575 6.11704 5.23601 6.48136 5.44043 6.89001L5.4541 6.91736L5.47168 6.94373C5.76525 7.38404 6.12925 7.82 6.49316 8.18396L6.50977 8.20056L6.52734 8.21521C6.9828 8.5947 7.50624 8.89232 8.02051 9.11267V9.11169C8.13708 9.16599 8.30093 9.21713 8.48535 9.1908C8.69284 9.16104 8.8638 9.04221 8.97168 8.86853C9.05925 8.76858 9.16031 8.6398 9.2334 8.54236C9.30235 8.45044 9.35848 8.37781 9.39941 8.32654C9.5195 8.38353 9.70824 8.47333 9.88965 8.55798L10.46 8.82654L10.5 8.84607C10.5013 8.93514 10.486 9.01401 10.4512 9.09119C10.2551 9.37328 10.0087 9.56883 9.7627 9.64099L9.6543 9.66541L9.64258 9.66736C9.27652 9.72839 9.03747 9.71646 8.81445 9.62732L8.77148 9.61072L8.72656 9.60193L8.52539 9.55017C8.33582 9.49094 8.1545 9.40475 7.875 9.29236C6.80846 8.78861 5.91503 7.96654 5.20312 6.93103L5.19727 6.92224L5.19141 6.91443L5.06836 6.73669C4.80508 6.32511 4.66276 5.87157 4.60742 5.40662C4.6136 5.01086 4.75885 4.66363 5.0752 4.34705L5.07617 4.34802C5.07134 4.35283 5.06988 4.35375 5.07324 4.35095C5.07647 4.34828 5.08224 4.34377 5.08984 4.33826C5.10572 4.32677 5.1254 4.31329 5.14551 4.30212C5.15723 4.29562 5.16741 4.29179 5.1748 4.28845H5.31543Z" stroke="white"/>
</g>
<defs>
<clipPath id="clip0_220979_4690">
<rect width="14" height="14" fill="white" transform="translate(0.5)"/>
</clipPath>
</defs>
</svg>
