<svg width="60" height="60" viewBox="0 0 60 60" fill="none" xmlns="http://www.w3.org/2000/svg">
<path d="M57.7027 15.3314C57.6193 14.8798 57.4412 14.4507 57.1806 14.0721C56.92 13.6934 56.5824 13.3736 56.19 13.1335L47.5458 21.7528C47.1425 22.1699 46.6593 22.5017 46.1247 22.7283C45.59 22.9549 45.0148 23.0717 44.4339 23.0717C43.853 23.0717 43.2777 22.9549 42.7432 22.7283C42.2085 22.5017 41.7251 22.1699 41.322 21.7528L38.0372 18.8223C37.2452 18.0167 36.8017 16.9336 36.8017 15.8055C36.8017 14.6774 37.2452 13.5943 38.0372 12.7887L46.6814 4.1694C46.4929 3.72781 46.2094 3.33294 45.8507 3.0127C45.4923 2.69247 45.0675 2.45471 44.6068 2.31624C41.5907 1.71651 38.4663 1.97322 35.5894 3.05717C32.7125 4.14112 30.1986 6.00873 28.3339 8.44739C26.4692 10.8861 25.3287 13.7978 25.0422 16.851C24.7738 19.7112 25.2649 22.5879 26.4613 25.1937L3.26592 48.3223C1.55364 50.0298 1.58203 52.8065 3.32887 54.4787L5.75258 56.799C7.44316 58.4173 10.1192 58.397 11.7853 56.7537L35.247 33.6129C37.7846 34.6578 40.5488 35.0553 43.2876 34.7625C46.3166 34.4388 49.1959 33.2837 51.6055 31.4258C54.0151 29.5679 55.861 27.0799 56.9372 24.2386C58.0139 21.3973 58.2788 18.3139 57.7027 15.3314Z" fill="#E0F2FE"/>
<path d="M57.7028 15.3314C57.619 14.8798 57.4413 14.4507 57.1807 14.0721C56.9201 13.6934 56.5825 13.3736 56.1901 13.1335L47.5459 21.7528C47.1427 22.1699 46.659 22.5017 46.1244 22.7283C45.5897 22.9549 45.0149 23.0717 44.434 23.0717C43.8527 23.0717 43.2778 22.9549 42.7432 22.7283C42.2085 22.5017 41.7251 22.1699 41.322 21.7528L38.0372 18.8223C37.2452 18.0167 36.8017 16.9336 36.8017 15.8055C36.8017 14.6774 37.2452 13.5943 38.0372 12.7887L46.6815 4.1694C46.4926 3.72781 46.2091 3.33294 45.8508 3.0127C45.4925 2.69247 45.0676 2.45471 44.6069 2.31624C41.5907 1.71651 38.4663 1.97322 35.5894 3.05717C32.7125 4.14112 30.1986 6.00872 28.3339 8.44739C26.4692 10.8861 25.3287 13.7978 25.0422 16.8511C24.7738 19.7112 25.2649 22.5879 26.4613 25.1937L3.26592 48.3223C1.55364 50.0298 1.58203 52.8065 3.32888 54.4787L5.75258 56.799C7.44317 58.4173 10.1192 58.397 11.7853 56.7537L35.247 33.6129C37.7846 34.6578 40.5488 35.0553 43.2878 34.7625C46.3167 34.4388 49.1957 33.2837 51.6057 31.4258C54.0152 29.5679 55.8607 27.08 56.9374 24.2386C58.0136 21.3973 58.2785 18.3139 57.7028 15.3314Z" stroke="#0369A1" stroke-width="2.86" stroke-linecap="round" stroke-linejoin="round"/>
</svg>
